<?xml version="1.0" encoding="UTF-8"?>
<svg id="Ebene_2" data-name="Ebene 2" xmlns="http://www.w3.org/2000/svg" viewBox="0 0 118.99 118.92">
  <defs>
    <style>
      .cls-1 {
        fill: #fff;
        stroke-width: 0px;
      }
    </style>
  </defs>
  <g id="Ebene_1-2" data-name="Ebene 1">
    <path class="cls-1" d="m89.21,7.97C78.94,2.09,67.89-.49,56.11.08,29.83,1.34,6.87,20.87,1.4,46.65c-.54,2.52-.79,5.11-1.19,7.66-.04.26-.14.5-.21.76v8.82c.22,1.56.44,3.11.68,4.67,1.84,11.95,6.88,22.37,15.08,31.23,9.58,10.35,21.44,16.49,35.39,18.6,1.37.21,2.75.36,4.12.53h8.36c2.1-.3,4.2-.54,6.29-.91,11.41-2.02,21.37-6.99,29.86-14.85,9.94-9.21,16.05-20.55,18.37-33.9,4.18-24.17-7.61-49.07-28.94-61.29Zm-19.88,88.89c0,1.31-.08,2.66-1.19,3.49-.79.58-1.83,1.12-2.78,1.16-3.75.13-7.5.09-11.26.04-2.36-.03-3.95-1.71-3.95-4.09-.01-7.51-.01-15.01-.01-22.52v-22.17c.01-2.84,1.62-4.44,4.47-4.44,3.37-.01,6.74-.01,10.1,0,3.02,0,4.6,1.53,4.61,4.54.02,7.24,0,14.47,0,21.71s0,14.85,0,22.28Zm-9.94-56.28c-5.63-.08-10-4.55-9.96-10.2.05-5.46,4.56-9.92,10.03-9.91,5.56,0,10.04,4.54,10.01,10.15-.03,5.54-4.58,10.04-10.08,9.96Z"/>
  </g>
</svg>