<?xml version="1.0" encoding="UTF-8"?>
<svg id="Ebene_2" data-name="Ebene 2" xmlns="http://www.w3.org/2000/svg" viewBox="0 0 114.66 114.65">
  <defs>
    <style>
      .cls-1 {
        fill: #fff;
        stroke-width: 0px;
      }
    </style>
  </defs>
  <g id="Ebene_1-2" data-name="Ebene 1">
    <path class="cls-1" d="m57.25,114.65C27.13,114.44.4,91.48,0,57.88-.37,26.27,23.88.52,56.39,0c33.79-.53,57.8,26.23,58.26,56.43.49,32.35-25.17,58.04-57.4,58.21Zm-.74-38.92c4.4,3.26,8.76,6.52,13.14,9.74.68.5,1.44.95,2.23,1.24,1.69.63,2.9.07,3.57-1.6.23-.58.36-1.2.49-1.82,3.11-14.64,6.21-29.28,9.35-43.92.34-1.61.46-3.1-.89-4.27-1.26-1.09-2.6-.43-3.87.06-14.97,5.77-29.94,11.56-44.91,17.34-3.57,1.38-7.16,2.71-10.67,4.24-.74.32-1.51,1.35-1.59,2.12-.05.46,1.13,1.32,1.89,1.56,4.29,1.39,8.6,2.7,12.95,3.9.81.22,1.93.08,2.66-.33,2.59-1.46,5.07-3.12,7.59-4.7,7.85-4.94,15.68-9.9,23.54-14.81.72-.45,1.59-.66,2.39-.98.11.19.22.39.33.58-.36.4-.68.84-1.07,1.2-8.12,7.44-16.22,14.88-24.38,22.27-1.04.94-1.69,1.82-1.7,3.31-.02,2-.37,3.99-.53,5.99-.17,2.21-.28,4.43-.44,7.07,4.27-1.88,6.49-5.67,9.94-8.19Z"/>
  </g>
</svg>